<?xml version="1.0" ?><svg viewBox="0 0 32 32" xmlns="http://www.w3.org/2000/svg"><defs><style>.cls-1{fill:#101820;}</style></defs><title/><g data-name="Layer 36" id="Layer_36"><path class="cls-1" d="M26,29H2a1,1,0,0,1-1-1V8A2,2,0,0,1,3,6H29a2,2,0,0,1,2,2V24a1,1,0,0,1-.29.71l-4,4A1,1,0,0,1,26,29ZM3,27H25.59L29,23.59V8H3ZM29,8h0Z"/><rect class="cls-1" height="3" width="2" x="15" y="4"/><rect class="cls-1" height="3" width="2" x="6" y="4"/><rect class="cls-1" height="3" width="2" x="24" y="4"/><path class="cls-1" d="M30,14H2a1,1,0,0,1,0-2H30a1,1,0,0,1,0,2Z"/><path class="cls-1" d="M13,24a1,1,0,0,1-1-1V18.62l-.55.27a1,1,0,0,1-.9-1.78l2-1A1,1,0,0,1,14,17v6A1,1,0,0,1,13,24Z"/><path class="cls-1" d="M20,24H18a2,2,0,0,1-2-2V18a2,2,0,0,1,2-2h2a2,2,0,0,1,2,2v4A2,2,0,0,1,20,24Zm-2-6v4h2V18Z"/><polygon class="cls-1" points="30 24 26 28 26 24 30 24"/><path class="cls-1" d="M26,29a.84.84,0,0,1-.38-.08A1,1,0,0,1,25,28V24a1,1,0,0,1,1-1h4a1,1,0,0,1,.92.62,1,1,0,0,1-.21,1.09l-4,4A1,1,0,0,1,26,29Zm1-4v.59l.59-.59Z"/></g></svg>