<?xml version="1.0" ?><svg data-name="Layer 1" id="Layer_1" viewBox="0 0 512 512" xmlns="http://www.w3.org/2000/svg"><path d="M492.65,123.09H435.7a6.51,6.51,0,0,0-6.52,6.52v10H370.46c-12.56-5.45-71.7-30.77-96.12-34.91-8.58-1.45-17.12-.67-27,.19-19.18,1.71-43,3.83-79-10a23.39,23.39,0,0,0-20.52,1.89A26.6,26.6,0,0,0,135,116a61,61,0,0,0,2.13,24.13H82.81V129.61a6.51,6.51,0,0,0-6.52-6.52H19.35a6.51,6.51,0,0,0-6.52,6.52V332.55a6.52,6.52,0,0,0,6.52,6.52H76.29a6.52,6.52,0,0,0,6.52-6.52V322a34.73,34.73,0,0,0,26.44,11.81,38.05,38.05,0,0,0,5.9-.53,34,34,0,0,0,8.07,19,34.67,34.67,0,0,0,26.49,11.87,38.28,38.28,0,0,0,9.61-1.39,33.75,33.75,0,0,0,7.24,14.49,34.68,34.68,0,0,0,26.5,11.87,38.58,38.58,0,0,0,15.81-3.59,33.9,33.9,0,0,0,7,13.08,34.59,34.59,0,0,0,26.39,11.82,39,39,0,0,0,18.32-4.77l5.86,4.71a37.17,37.17,0,0,0,23.16,8.28,33.79,33.79,0,0,0,4.38-.28,33.07,33.07,0,0,0,22.57-13.17A33.9,33.9,0,0,0,322,393.59a36.28,36.28,0,0,0,14.59,1.21,33,33,0,0,0,22.52-13.16,33.56,33.56,0,0,0,5.8-12.77,35,35,0,0,0,10.21.2,33.05,33.05,0,0,0,22.56-13.16,34.32,34.32,0,0,0,6.71-19.17,35.49,35.49,0,0,0,4-.28,32.89,32.89,0,0,0,20.77-11.24v7.33a6.52,6.52,0,0,0,6.52,6.52h56.95a6.52,6.52,0,0,0,6.52-6.52V129.61A6.51,6.51,0,0,0,492.65,123.09ZM120.47,307.57c-6,5.16-14.45,5.24-18.85.13a11.31,11.31,0,0,1-2.52-8.8,15.48,15.48,0,0,1,5.5-9.93l41.22-36.48a15.64,15.64,0,0,1,10.11-3.92,10.93,10.93,0,0,1,11.26,12.59,15.53,15.53,0,0,1-5.5,9.93Zm39.38,29.26c-6,5.16-14.46,5.22-18.85.12s-3.12-13.46,3-18.79l47.12-42.38a15.66,15.66,0,0,1,10.11-3.91,11.33,11.33,0,0,1,8.74,3.79c4.41,5.1,3.12,13.46-3,18.8Zm43.31,25c-6,5.18-14.45,5.2-18.83.13a11.28,11.28,0,0,1-2.53-8.8,15.53,15.53,0,0,1,5.48-9.91l39.54-34.8a15.6,15.6,0,0,1,10.11-3.92,10.93,10.93,0,0,1,11.26,12.59,15.45,15.45,0,0,1-5.48,9.91Zm67.76,3.83-18.47,17.53c-6,5.16-14.44,5.22-18.84.12a11.3,11.3,0,0,1-2.52-8.79,15.93,15.93,0,0,1,5.8-10.2l18.47-17.54a15.64,15.64,0,0,1,10.1-3.91,11,11,0,0,1,11.26,12.59A15.93,15.93,0,0,1,270.92,365.62Zm26.72,25.62a9.69,9.69,0,0,1-6.7,3.86,13.41,13.41,0,0,1-9.84-3L279,390.35l7.71-7.32a39.6,39.6,0,0,0,8.67-10.66,11.48,11.48,0,0,0,1.73,4.13C300.34,381.34,300.59,387.27,297.64,391.24Zm114.42-81.92a9.64,9.64,0,0,1-6.66,3.86,13.5,13.5,0,0,1-9.86-3l-4.25-3.41A11.74,11.74,0,0,0,376,324.52c5.26,4.84,6.53,12.49,2.89,17.41a9.73,9.73,0,0,1-6.7,3.86,13.39,13.39,0,0,1-9.85-3l-4.06-3.26a11.74,11.74,0,0,0-17.68,14.72c2.47,4.6,2.36,9.87-.29,13.44a9.64,9.64,0,0,1-6.66,3.85,13.38,13.38,0,0,1-9.88-3l-9.64-7.75a11.65,11.65,0,0,0-14.66.12c.18-.92.48-1.8.59-2.73A34.53,34.53,0,0,0,292,331.29a34,34,0,0,0-20.53-11.22c0-.09.05-.18.06-.28a34.54,34.54,0,0,0-8.06-26.85c-7-8.14-17.19-12-27.54-11.7a34.09,34.09,0,0,0-8.12-20.91c-9.69-11.22-25.25-14.58-39.17-9.7a33.73,33.73,0,0,0-7.27-14.71c-12.88-14.9-36.19-15.92-52.08-2.21L88.05,270.19a41.09,41.09,0,0,0-5.24,5.49V163.55l67.33,0a60.6,60.6,0,0,0,19,13.66c33.08,15.53,51.36,16.84,63.46,17.7,8.56.61,9.44.87,11.75,3.47,31.84,35.57,71.57,37.33,87.89,36.32,22.28,16.18,45.63,33.59,67.95,50.68l8.59,6C414.33,296.06,415.86,304.2,412.06,309.32ZM429.18,274l-78.12-57.75a30.57,30.57,0,0,0-9.71-4.05,31.79,31.79,0,0,0-7.63-1.09c-.79,0-1.58,0-2.37.08-1.29.09-2.9.14-4.57.16-.74,0-1.56,0-2.37,0-1,0-2-.07-3.09-.12-1.22-.07-2.42-.13-3.74-.26l-.86-.11A89,89,0,0,1,306,209l-1.31-.3c-2-.51-4-1.1-6.12-1.8-.39-.13-.78-.29-1.18-.42a84.3,84.3,0,0,1-13.59-6.11,83.27,83.27,0,0,1-12.3-8.35h0a90.82,90.82,0,0,1-9.65-9.29,34.21,34.21,0,0,0-4.83-4.43c-.32-.25-.65-.51-1-.74a27.94,27.94,0,0,0-4.79-2.76c-.2-.09-.41-.16-.61-.24a32.05,32.05,0,0,0-4.86-1.59l-.32-.08a48.32,48.32,0,0,0-5.49-.9h0c-1.89-.21-3.79-.36-5.71-.5-8-.57-19.13-1.42-37-8-2.68-1-5.5-2.07-8.47-3.31s-6.24-2.66-9.65-4.26a38.28,38.28,0,0,1-7-4.28c-.66-.49-1.26-1-1.85-1.53a34.16,34.16,0,0,1-3.46-3.45c-.52-.61-1.09-1.2-1.55-1.82-8.63-11.55-7.07-25-7-25.77a3.66,3.66,0,0,1,1.58-2.31c41.09,15.82,69.08,13.34,89.55,11.53,8.29-.74,15.45-1.36,21-.43,19.91,3.37,73.8,25.86,92.88,34.25l2.27,1h63.16l.46,47.73Z"/></svg>